<?xml version="1.0" encoding="iso-8859-1"?>
<!-- Generator: Adobe Illustrator 16.0.0, SVG Export Plug-In . SVG Version: 6.00 Build 0)  -->
<!DOCTYPE svg PUBLIC "-//W3C//DTD SVG 1.1//EN" "http://www.w3.org/Graphics/SVG/1.1/DTD/svg11.dtd">
<svg version="1.1" id="Capa_1" xmlns="http://www.w3.org/2000/svg" xmlns:xlink="http://www.w3.org/1999/xlink" x="0px" y="0px"
	 width="382.677px" height="382.677px" viewBox="0 0 382.677 382.677" style="enable-background:new 0 0 382.677 382.677;"
	 xml:space="preserve">
<g>
	<g>
		<path d="M339.693,313.929c21.107,0,38.227-17.717,38.227-39.557v-79.119c0-18.021-11.669-33.205-27.606-37.978
			C348.847,70.308,278.096,0,191.314,0C104.498,0,33.755,70.324,32.296,157.308c-15.897,4.779-27.539,19.955-27.539,37.946v79.119
			c0,21.84,17.132,39.557,38.241,39.557h30.324V162.212c0.081-0.727,0.21-1.453,0.21-2.2c0-65.455,52.838-118.694,117.774-118.694
			c64.908,0,117.762,53.239,117.762,118.694c0,1.01,0.152,1.972,0.281,2.938v150.979H339.693z"/>
		<path d="M191.347,158.379c-61.935,0-112.144,50.215-112.144,112.146c0,61.936,50.209,112.152,112.144,112.152
			c61.911,0,112.14-50.217,112.14-112.152C303.486,208.594,253.258,158.379,191.347,158.379z"/>
	</g>
</g>
<g>
</g>
<g>
</g>
<g>
</g>
<g>
</g>
<g>
</g>
<g>
</g>
<g>
</g>
<g>
</g>
<g>
</g>
<g>
</g>
<g>
</g>
<g>
</g>
<g>
</g>
<g>
</g>
<g>
</g>
</svg>
